<svg width="135" height="40" viewBox="0 0 135 40" fill="none" xmlns="http://www.w3.org/2000/svg">
<path d="M130 0.8C131.114 0.8 132.182 1.2425 132.97 2.03015C133.758 2.8178 134.2 3.88609 134.2 5V35C134.2 36.1139 133.758 37.1822 132.97 37.9698C132.182 38.7575 131.114 39.2 130 39.2H5C3.88609 39.2 2.8178 38.7575 2.03015 37.9698C1.2425 37.1822 0.8 36.1139 0.8 35V5C0.8 3.88609 1.2425 2.8178 2.03015 2.03015C2.8178 1.2425 3.88609 0.8 5 0.8H130ZM130 0H5C3.67392 0 2.40215 0.526784 1.46447 1.46447C0.526784 2.40215 0 3.67392 0 5V35C0 36.3261 0.526784 37.5979 1.46447 38.5355C2.40215 39.4732 3.67392 40 5 40H130C131.326 40 132.598 39.4732 133.536 38.5355C134.473 37.5979 135 36.3261 135 35V5C135 3.67392 134.473 2.40215 133.536 1.46447C132.598 0.526784 131.326 0 130 0Z" fill="#F3F4F5"/>
<path d="M32.1136 19.3128C32.086 16.2419 34.6281 14.7479 34.7443 14.6783C33.3046 12.5793 31.0732 12.2925 30.289 12.2696C28.4148 12.0724 26.5969 13.3911 25.6422 13.3911C24.6684 13.3911 23.1982 12.2887 21.6137 12.3211C19.5747 12.3525 17.6672 13.533 16.621 15.3662C14.462 19.1041 16.0722 24.597 18.1407 27.6184C19.1755 29.0981 20.3846 30.7503 21.9672 30.6921C23.5155 30.6283 24.0939 29.705 25.9623 29.705C27.8136 29.705 28.3567 30.6921 29.9708 30.655C31.6325 30.6283 32.6787 29.1686 33.6772 27.6755C34.873 25.9796 35.3532 24.3093 35.3722 24.2235C35.3332 24.2102 32.1451 22.9935 32.1136 19.3128Z" fill="#F3F4F5"/>
<path d="M29.0651 10.2823C29.8978 9.24084 30.4676 7.82402 30.3094 6.38623C29.1041 6.43959 27.5968 7.21994 26.7288 8.23849C25.9608 9.13603 25.2748 10.6072 25.452 11.9906C26.806 12.0916 28.1961 11.3075 29.0651 10.2823Z" fill="#F3F4F5"/>
<path d="M54.5212 30.4798H52.3574L51.1721 26.7552H47.0521L45.9231 30.4798H43.8164L47.8982 17.7998H50.4194L54.5212 30.4798ZM50.8148 25.1926L49.7429 21.8816C49.6295 21.5434 49.417 20.7468 49.1035 19.4929H49.0654C48.9406 20.0322 48.7396 20.8288 48.4632 21.8816L47.4104 25.1926H50.8148Z" fill="#F3F4F5"/>
<path d="M65.0178 25.7958C65.0178 27.3507 64.5976 28.5799 63.7572 29.4822C63.0045 30.2854 62.0698 30.6865 60.9541 30.6865C59.7497 30.6865 58.8846 30.2539 58.3577 29.3888H58.3195V34.2052H56.2882V24.3465C56.2882 23.369 56.2624 22.3657 56.2129 21.3366H57.9994L58.1128 22.7858H58.1509C58.8283 21.6939 59.8564 21.1489 61.2361 21.1489C62.3147 21.1489 63.2151 21.5748 63.9354 22.4276C64.6576 23.2813 65.0178 24.4037 65.0178 25.7958ZM62.9483 25.8701C62.9483 24.9802 62.7482 24.2465 62.3461 23.6691C61.9069 23.0669 61.3171 22.7658 60.5777 22.7658C60.0765 22.7658 59.6211 22.9335 59.2142 23.2642C58.8064 23.5976 58.5396 24.0331 58.4148 24.5724C58.3519 24.8239 58.3205 25.0297 58.3205 25.1917V26.7162C58.3205 27.3812 58.5244 27.9424 58.9322 28.4007C59.34 28.859 59.8698 29.0877 60.5215 29.0877C61.2866 29.0877 61.8821 28.7923 62.308 28.2035C62.7348 27.6137 62.9483 26.8362 62.9483 25.8701Z" fill="#F3F4F5"/>
<path d="M75.5344 25.7958C75.5344 27.3507 75.1142 28.5799 74.2729 29.4822C73.5211 30.2854 72.5864 30.6865 71.4707 30.6865C70.2663 30.6865 69.4012 30.2539 68.8752 29.3888H68.8371V34.2052H66.8057V24.3465C66.8057 23.369 66.78 22.3657 66.7305 21.3366H68.517L68.6304 22.7858H68.6685C69.345 21.6939 70.3731 21.1489 71.7537 21.1489C72.8313 21.1489 73.7317 21.5748 74.4539 22.4276C75.1733 23.2813 75.5344 24.4037 75.5344 25.7958ZM73.4649 25.8701C73.4649 24.9802 73.2639 24.2465 72.8618 23.6691C72.4225 23.0669 71.8347 22.7658 71.0943 22.7658C70.5922 22.7658 70.1377 22.9335 69.7299 23.2642C69.3221 23.5976 69.0563 24.0331 68.9315 24.5724C68.8695 24.8239 68.8371 25.0297 68.8371 25.1917V26.7162C68.8371 27.3812 69.041 27.9424 69.4469 28.4007C69.8547 28.8581 70.3845 29.0877 71.0381 29.0877C71.8032 29.0877 72.3987 28.7923 72.8246 28.2035C73.2515 27.6137 73.4649 26.8362 73.4649 25.8701Z" fill="#F3F4F5"/>
<path d="M87.2921 26.9241C87.2921 28.0027 86.9177 28.8802 86.1659 29.5577C85.3398 30.298 84.1898 30.6677 82.712 30.6677C81.3476 30.6677 80.2538 30.4047 79.4258 29.8778L79.8965 28.1847C80.7883 28.724 81.7668 28.9946 82.833 28.9946C83.5981 28.9946 84.1936 28.8212 84.6214 28.4762C85.0473 28.1313 85.2598 27.6683 85.2598 27.0909C85.2598 26.5764 85.0845 26.1428 84.7329 25.7912C84.3832 25.4397 83.7992 25.1128 82.9836 24.8108C80.7635 23.9828 79.6545 22.7699 79.6545 21.1749C79.6545 20.1325 80.0432 19.2779 80.8216 18.6128C81.5972 17.9468 82.632 17.6143 83.9259 17.6143C85.0797 17.6143 86.0383 17.8153 86.8034 18.2164L86.2955 19.8724C85.5809 19.4837 84.7729 19.2893 83.8687 19.2893C83.1541 19.2893 82.5958 19.4656 82.1956 19.8162C81.8573 20.1297 81.6877 20.5117 81.6877 20.9643C81.6877 21.4655 81.8812 21.88 82.2699 22.2058C82.6082 22.5069 83.2227 22.8328 84.1145 23.1844C85.2055 23.6236 86.0068 24.1372 86.5223 24.726C87.0358 25.3129 87.2921 26.0475 87.2921 26.9241Z" fill="#F3F4F5"/>
<path d="M94.0076 22.8612H91.7685V27.3004C91.7685 28.4294 92.163 28.9935 92.9538 28.9935C93.3169 28.9935 93.6179 28.9621 93.8561 28.8992L93.9124 30.4418C93.5122 30.5914 92.9853 30.6666 92.3326 30.6666C91.5303 30.6666 90.9034 30.4218 90.4508 29.933C90.0001 29.4432 89.7734 28.6219 89.7734 27.4681V22.8593H88.4395V21.3348H89.7734V19.6608L91.7685 19.0586V21.3348H94.0076V22.8612Z" fill="#F3F4F5"/>
<path d="M104.112 25.8334C104.112 27.2388 103.71 28.3927 102.907 29.295C102.066 30.224 100.949 30.687 99.5573 30.687C98.2157 30.687 97.1476 30.2421 96.3511 29.3521C95.5545 28.4622 95.1562 27.3389 95.1562 25.9849C95.1562 24.5681 95.566 23.4076 96.3882 22.5053C97.2086 21.602 98.3158 21.1504 99.7078 21.1504C101.049 21.1504 102.129 21.5954 102.944 22.4862C103.723 23.3504 104.112 24.4662 104.112 25.8334ZM102.004 25.8992C102.004 25.0559 101.824 24.3328 101.459 23.7296C101.033 22.9998 100.424 22.6358 99.6354 22.6358C98.8188 22.6358 98.1986 23.0007 97.7727 23.7296C97.4077 24.3337 97.2277 25.0683 97.2277 25.9373C97.2277 26.7805 97.4077 27.5037 97.7727 28.1059C98.2119 28.8357 98.8255 29.1997 99.6173 29.1997C100.393 29.1997 101.002 28.8281 101.441 28.0868C101.815 27.4723 102.004 26.7415 102.004 25.8992Z" fill="#F3F4F5"/>
<path d="M110.714 23.1231C110.513 23.086 110.299 23.0669 110.074 23.0669C109.359 23.0669 108.806 23.3366 108.418 23.8768C108.079 24.3532 107.91 24.9554 107.91 25.6824V30.4798H105.879L105.898 24.216C105.898 23.1622 105.873 22.2027 105.822 21.3376H107.592L107.666 23.0869H107.722C107.937 22.4857 108.275 22.0017 108.738 21.6387C109.19 21.3119 109.679 21.1489 110.206 21.1489C110.394 21.1489 110.563 21.1623 110.714 21.1861V23.1231Z" fill="#F3F4F5"/>
<path d="M119.799 25.4757C119.799 25.8397 119.776 26.1465 119.725 26.397H113.631C113.655 27.3003 113.949 27.9911 114.515 28.4675C115.029 28.8934 115.693 29.1068 116.508 29.1068C117.411 29.1068 118.234 28.963 118.974 28.6743L119.292 30.0844C118.427 30.4617 117.406 30.6494 116.227 30.6494C114.81 30.6494 113.697 30.2321 112.887 29.3984C112.079 28.5647 111.674 27.4451 111.674 26.0407C111.674 24.662 112.05 23.5139 112.804 22.5982C113.593 21.6206 114.659 21.1318 116.001 21.1318C117.318 21.1318 118.316 21.6206 118.993 22.5982C119.53 23.3747 119.799 24.3352 119.799 25.4757ZM117.862 24.9488C117.876 24.3466 117.743 23.8264 117.468 23.3871C117.116 22.8221 116.576 22.5401 115.849 22.5401C115.185 22.5401 114.645 22.8154 114.232 23.3681C113.894 23.8073 113.693 24.3342 113.631 24.9478H117.862V24.9488Z" fill="#F3F4F5"/>
<path d="M50.1419 9.99957C50.1419 11.121 49.8055 11.9652 49.1338 12.5321C48.5116 13.0552 47.6274 13.3172 46.4821 13.3172C45.9143 13.3172 45.4283 13.2925 45.0215 13.2429V7.11542C45.5522 7.02967 46.1239 6.98584 46.7413 6.98584C47.8323 6.98584 48.6545 7.22309 49.2091 7.69759C49.8303 8.23402 50.1419 9.00102 50.1419 9.99957ZM49.089 10.0272C49.089 9.30021 48.8966 8.74281 48.5116 8.35407C48.1267 7.96628 47.5645 7.7719 46.8242 7.7719C46.5098 7.7719 46.242 7.79287 46.02 7.8367V12.495C46.1429 12.514 46.3678 12.5226 46.6946 12.5226C47.4588 12.5226 48.0486 12.3101 48.464 11.8852C48.8794 11.4602 49.089 10.8409 49.089 10.0272Z" fill="#F3F4F5"/>
<path d="M55.7253 10.9788C55.7253 11.6696 55.528 12.2355 55.1336 12.6795C54.7201 13.1359 54.1722 13.3637 53.4881 13.3637C52.8287 13.3637 52.3038 13.1455 51.9121 12.7072C51.5215 12.2698 51.3262 11.7182 51.3262 11.0531C51.3262 10.3576 51.5272 9.78682 51.9312 9.34377C52.3352 8.90071 52.8783 8.67871 53.5624 8.67871C54.2218 8.67871 54.7515 8.8969 55.1526 9.33424C55.5338 9.75919 55.7253 10.308 55.7253 10.9788ZM54.6896 11.0112C54.6896 10.5967 54.6 10.2413 54.4218 9.94499C54.2122 9.58673 53.914 9.40761 53.5262 9.40761C53.1251 9.40761 52.8202 9.58673 52.6106 9.94499C52.4314 10.2413 52.3428 10.6024 52.3428 11.0293C52.3428 11.4438 52.4324 11.7992 52.6106 12.0955C52.8268 12.4537 53.1279 12.6329 53.5167 12.6329C53.8978 12.6329 54.197 12.4509 54.4123 12.0859C54.5972 11.7839 54.6896 11.4257 54.6896 11.0112Z" fill="#F3F4F5"/>
<path d="M63.2088 8.77051L61.8035 13.262H60.8888L60.3066 11.3116C60.1589 10.8248 60.0389 10.3407 59.9455 9.86052H59.9274C59.8407 10.3541 59.7206 10.8371 59.5663 11.3116L58.9479 13.262H58.0227L56.7012 8.77051H57.7273L58.2352 10.9057C58.3581 11.4107 58.4591 11.8919 58.5401 12.3473H58.5582C58.6325 11.9719 58.7554 11.4936 58.9288 10.9153L59.5663 8.77146H60.38L60.9907 10.8695C61.1384 11.3812 61.2584 11.8738 61.3509 12.3483H61.3785C61.4462 11.8862 61.5481 11.3936 61.6834 10.8695L62.2284 8.77146H63.2088V8.77051Z" fill="#F3F4F5"/>
<path d="M68.3862 13.2616H67.3877V10.6891C67.3877 9.89633 67.0866 9.49996 66.4825 9.49996C66.1862 9.49996 65.947 9.60858 65.7612 9.82677C65.5773 10.045 65.484 10.3022 65.484 10.5966V13.2607H64.4854V10.0535C64.4854 9.65908 64.473 9.23127 64.4492 8.7682H65.3268L65.3734 9.47042H65.4011C65.5173 9.25223 65.6907 9.07215 65.9184 8.92828C66.189 8.76058 66.492 8.67578 66.8236 8.67578C67.2428 8.67578 67.5916 8.81108 67.8688 9.08263C68.2138 9.41516 68.3862 9.91157 68.3862 10.5709V13.2616Z" fill="#F3F4F5"/>
<path d="M71.1402 13.2619H70.1426V6.70947H71.1402V13.2619Z" fill="#F3F4F5"/>
<path d="M77.0182 10.9788C77.0182 11.6696 76.821 12.2355 76.4266 12.6795C76.013 13.1359 75.4642 13.3637 74.7811 13.3637C74.1208 13.3637 73.5958 13.1455 73.2051 12.7072C72.8145 12.2698 72.6191 11.7182 72.6191 11.0531C72.6191 10.3576 72.8202 9.78682 73.2242 9.34377C73.6282 8.90071 74.1713 8.67871 74.8544 8.67871C75.5147 8.67871 76.0435 8.8969 76.4456 9.33424C76.8267 9.75919 77.0182 10.308 77.0182 10.9788ZM75.9816 11.0112C75.9816 10.5967 75.892 10.2413 75.7139 9.94499C75.5052 9.58673 75.206 9.40761 74.8192 9.40761C74.4171 9.40761 74.1122 9.58673 73.9035 9.94499C73.7244 10.2413 73.6358 10.6024 73.6358 11.0293C73.6358 11.4438 73.7253 11.7992 73.9035 12.0955C74.1198 12.4537 74.4209 12.6329 74.8096 12.6329C75.1908 12.6329 75.489 12.4509 75.7043 12.0859C75.8901 11.7839 75.9816 11.4257 75.9816 11.0112Z" fill="#F3F4F5"/>
<path d="M81.8514 13.2617H80.9548L80.8805 12.7443H80.8529C80.5461 13.1569 80.1087 13.3637 79.5409 13.3637C79.1169 13.3637 78.7739 13.2274 78.5157 12.9568C78.2813 12.711 78.1641 12.4051 78.1641 12.0421C78.1641 11.4933 78.3927 11.075 78.8529 10.7854C79.3122 10.4957 79.9582 10.3537 80.79 10.3604V10.2766C80.79 9.68487 80.4794 9.3895 79.8572 9.3895C79.4141 9.3895 79.0235 9.50098 78.6862 9.72203L78.4833 9.0665C78.9006 8.80829 79.4161 8.67871 80.0239 8.67871C81.1978 8.67871 81.7866 9.29803 81.7866 10.5367V12.1908C81.7866 12.6395 81.8086 12.9968 81.8514 13.2617ZM80.8148 11.7182V11.0255C79.7133 11.0064 79.1626 11.3085 79.1626 11.9306C79.1626 12.165 79.2255 12.3403 79.3541 12.4575C79.4827 12.5747 79.6466 12.6329 79.842 12.6329C80.0611 12.6329 80.266 12.5633 80.4527 12.4251C80.6404 12.286 80.7557 12.1098 80.7986 11.8935C80.8091 11.8449 80.8148 11.7858 80.8148 11.7182Z" fill="#F3F4F5"/>
<path d="M87.5259 13.2619H86.6398L86.5931 12.5406H86.5655C86.2825 13.0895 85.8004 13.3639 85.1229 13.3639C84.5817 13.3639 84.1311 13.1514 83.7738 12.7264C83.4165 12.3015 83.2383 11.7498 83.2383 11.0724C83.2383 10.3454 83.4317 9.75655 83.8204 9.30682C84.1968 8.88759 84.658 8.67797 85.2068 8.67797C85.8099 8.67797 86.232 8.88092 86.4721 9.28777H86.4912V6.70947H87.4907V12.0519C87.4907 12.4892 87.5021 12.8922 87.5259 13.2619ZM86.4912 11.3677V10.6188C86.4912 10.4893 86.4816 10.3844 86.4635 10.3044C86.4073 10.0643 86.2863 9.86231 86.1024 9.69938C85.9166 9.53645 85.6927 9.45451 85.4345 9.45451C85.0619 9.45451 84.7704 9.60219 84.556 9.89851C84.3435 10.1948 84.2359 10.5731 84.2359 11.0352C84.2359 11.4792 84.3378 11.8394 84.5427 12.1166C84.759 12.412 85.0505 12.5597 85.4154 12.5597C85.7432 12.5597 86.0052 12.4368 86.2044 12.19C86.3968 11.9623 86.4912 11.6879 86.4912 11.3677Z" fill="#F3F4F5"/>
<path d="M96.0651 10.9788C96.0651 11.6696 95.8679 12.2355 95.4734 12.6795C95.0599 13.1359 94.513 13.3637 93.8279 13.3637C93.1695 13.3637 92.6446 13.1455 92.252 12.7072C91.8613 12.2698 91.666 11.7182 91.666 11.0531C91.666 10.3576 91.8671 9.78682 92.271 9.34377C92.675 8.90071 93.2181 8.67871 93.9032 8.67871C94.5616 8.67871 95.0923 8.8969 95.4925 9.33424C95.8736 9.75919 96.0651 10.308 96.0651 10.9788ZM95.0304 11.0112C95.0304 10.5967 94.9408 10.2413 94.7626 9.94499C94.5521 9.58673 94.2548 9.40761 93.866 9.40761C93.4659 9.40761 93.161 9.58673 92.9504 9.94499C92.7713 10.2413 92.6827 10.6024 92.6827 11.0293C92.6827 11.4438 92.7722 11.7992 92.9504 12.0955C93.1667 12.4537 93.4678 12.6329 93.8565 12.6329C94.2376 12.6329 94.5378 12.4509 94.7531 12.0859C94.937 11.7839 95.0304 11.4257 95.0304 11.0112Z" fill="#F3F4F5"/>
<path d="M101.434 13.2616H100.436V10.6891C100.436 9.89633 100.135 9.49996 99.5304 9.49996C99.2341 9.49996 98.9949 9.60858 98.8101 9.82677C98.6252 10.045 98.5328 10.3022 98.5328 10.5966V13.2607H97.5333V10.0535C97.5333 9.65908 97.5219 9.23127 97.498 8.7682H98.3746L98.4213 9.47042H98.4489C98.5661 9.25223 98.7396 9.07215 98.9663 8.92828C99.2379 8.76058 99.5399 8.67578 99.8724 8.67578C100.291 8.67578 100.639 8.81108 100.917 9.08263C101.263 9.41516 101.434 9.91157 101.434 10.5709V13.2616Z" fill="#F3F4F5"/>
<path d="M108.153 9.5184H107.054V11.7003C107.054 12.2549 107.249 12.5321 107.636 12.5321C107.815 12.5321 107.964 12.5169 108.081 12.4854L108.107 13.2429C107.91 13.3172 107.65 13.3544 107.331 13.3544C106.937 13.3544 106.63 13.2343 106.408 12.9942C106.185 12.7541 106.074 12.3501 106.074 11.7832V9.5184H105.418V8.77045H106.074V7.94723L107.053 7.65186V8.7695H108.153V9.5184H108.153Z" fill="#F3F4F5"/>
<path d="M113.44 13.2619H112.44V10.7084C112.44 9.90328 112.139 9.50024 111.536 9.50024C111.073 9.50024 110.757 9.73368 110.583 10.2006C110.554 10.2987 110.537 10.4187 110.537 10.5598V13.261H109.539V6.70947H110.537V9.4164H110.556C110.87 8.92379 111.321 8.67797 111.905 8.67797C112.318 8.67797 112.66 8.81327 112.932 9.08482C113.27 9.42306 113.44 9.92615 113.44 10.5912V13.2619Z" fill="#F3F4F5"/>
<path d="M118.894 10.8037C118.894 10.9829 118.88 11.1334 118.856 11.2563H115.862C115.875 11.7003 116.018 12.0386 116.295 12.273C116.549 12.4826 116.876 12.5874 117.276 12.5874C117.719 12.5874 118.123 12.5169 118.487 12.3749L118.643 13.0686C118.217 13.2534 117.716 13.3458 117.136 13.3458C116.44 13.3458 115.892 13.141 115.496 12.7313C115.098 12.3216 114.9 11.7718 114.9 11.082C114.9 10.4045 115.084 9.84046 115.455 9.39073C115.842 8.91052 116.365 8.67041 117.025 8.67041C117.671 8.67041 118.162 8.91052 118.493 9.39073C118.761 9.77185 118.894 10.2435 118.894 10.8037ZM117.941 10.5455C117.948 10.2492 117.883 9.99386 117.747 9.77852C117.574 9.50126 117.31 9.36215 116.953 9.36215C116.627 9.36215 116.361 9.49745 116.158 9.769C115.992 9.98528 115.894 10.2435 115.862 10.5455H117.941Z" fill="#F3F4F5"/>
</svg>
