<svg width="48" height="48" viewBox="0 0 48 48" fill="none" xmlns="http://www.w3.org/2000/svg">
<path d="M48 24C48 28.7467 46.5924 33.3869 43.9553 37.3337C41.3181 41.2805 37.5698 44.3566 33.1844 46.1731C28.799 47.9896 23.9734 48.4649 19.3178 47.5388C14.6623 46.6128 10.3859 44.327 7.02945 40.9706C3.67299 37.6141 1.38721 33.3377 0.461164 28.6822C-0.464881 24.0266 0.0103989 19.201 1.8269 14.8156C3.6434 10.4302 6.71954 6.68188 10.6663 4.04473C14.6131 1.40758 19.2533 0 24 0C30.3652 0 36.4697 2.52856 40.9706 7.02944C45.4714 11.5303 48 17.6348 48 24Z" fill="#A1A8B6"/>
<path d="M28.9891 33.3154V31.859C30.7987 30.1757 32.0874 28.0085 32.7023 25.6147C32.7615 25.6457 32.825 25.6678 32.8906 25.6803C33.7377 25.8245 34.6516 24.2606 34.9306 22.1872C35.2097 20.1138 34.7501 18.3165 33.9026 18.1723C33.7661 18.1593 33.6284 18.1779 33.5002 18.2269C33.3721 18.2759 33.257 18.3539 33.1641 18.4547C33.1463 18.3317 33.127 18.2098 33.1077 18.0882C33.2033 17.6299 33.2994 17.1716 33.396 16.7134C33.704 15.247 34.0075 13.6968 33.5302 12.2764C33.2631 11.5423 32.8488 10.8705 32.3128 10.3023C30.6067 8.49621 28.3153 7.3538 25.8462 7.07823C23.3898 6.81542 20.9058 7.12112 18.5865 7.9717C17.1983 8.44938 15.6051 9.51295 15.8901 10.953C15.1782 10.687 14.3733 11.2513 14.0991 11.9603C13.8249 12.6692 13.9349 13.4611 14.0487 14.2127C14.2567 15.5838 14.4647 16.955 14.6728 18.3261C14.5085 18.2024 14.3024 18.1475 14.0984 18.1731C13.2508 18.3172 12.7906 20.1149 13.0704 22.188C13.3501 24.261 14.2633 25.8252 15.1086 25.6811C15.1742 25.6685 15.2376 25.6464 15.2968 25.6155C15.9118 28.0094 17.201 30.1765 19.0112 31.8594V33.2843C13.1834 33.8817 8.06602 35.5311 4.4043 37.8495C6.61175 40.9751 9.53491 43.5273 12.9297 45.2929C16.3245 47.0586 20.0924 47.9866 23.9189 47.9993C27.7454 48.012 31.5195 47.1092 34.926 45.3661C38.3324 43.6231 41.2725 41.0904 43.5007 37.9796C39.8898 35.6327 34.8017 33.9499 28.9891 33.3154Z" fill="white"/>
</svg>
