<svg width="32" height="32" viewBox="0 0 32 32" fill="none" xmlns="http://www.w3.org/2000/svg">
<path d="M24.2969 10H21.9266C21.9266 6.688 19.2718 4 16.0007 4C12.7295 4 10.0747 6.688 10.0747 10H7.70435C6.40065 10 5.33398 11.08 5.33398 12.4V25.6C5.33398 26.92 6.40065 28 7.70435 28H24.2969C25.6006 28 26.6673 26.92 26.6673 25.6V12.4C26.6673 11.08 25.6006 10 24.2969 10ZM16.0007 6.4C17.9681 6.4 19.5562 8.008 19.5562 10H12.4451C12.4451 8.008 14.0332 6.4 16.0007 6.4ZM24.2969 25.6H7.70435V12.4H24.2969V25.6ZM16.0007 17.2C14.0332 17.2 12.4451 15.592 12.4451 13.6H10.0747C10.0747 16.912 12.7295 19.6 16.0007 19.6C19.2718 19.6 21.9266 16.912 21.9266 13.6H19.5562C19.5562 15.592 17.9681 17.2 16.0007 17.2Z" fill="#D13406"/>
</svg>
