<svg width="20" height="18" viewBox="0 0 20 18" fill="none" xmlns="http://www.w3.org/2000/svg">
<path d="M14.5 0.222168C12.76 0.222168 11.09 1.00691 10 2.24699C8.91 1.00691 7.24 0.222168 5.5 0.222168C2.42 0.222168 0 2.5667 0 5.55066C0 9.21278 3.4 12.1967 8.55 16.7308L10 17.9999L11.45 16.7211C16.6 12.1967 20 9.21278 20 5.55066C20 2.5667 17.58 0.222168 14.5 0.222168ZM10.1 15.2873L10 15.3841L9.9 15.2873C5.14 11.1117 2 8.35054 2 5.55066C2 3.61302 3.5 2.1598 5.5 2.1598C7.04 2.1598 8.54 3.11893 9.07 4.44621H10.94C11.46 3.11893 12.96 2.1598 14.5 2.1598C16.5 2.1598 18 3.61302 18 5.55066C18 8.35054 14.86 11.1117 10.1 15.2873Z" fill="#D13406"/>
</svg>
