<svg width="32" height="32" viewBox="0 0 32 32" fill="none" xmlns="http://www.w3.org/2000/svg">
<g clip-path="url(#clip0_743_17350)">
<path d="M0.0175781 10.7333C0.0175781 6.93673 0.0175781 5.03843 0.768156 3.5935C1.40066 2.37588 2.39346 1.38308 3.61108 0.750577C5.05601 0 6.95431 0 10.7509 0H21.2843C25.0809 0 26.9792 0 28.4241 0.750577C29.6417 1.38308 30.6345 2.37588 31.267 3.5935C32.0176 5.03843 32.0176 6.93673 32.0176 10.7333V21.2667C32.0176 25.0633 32.0176 26.9616 31.267 28.4065C30.6345 29.6241 29.6417 30.6169 28.4241 31.2494C26.9792 32 25.0809 32 21.2843 32H10.7509C6.95431 32 5.05601 32 3.61108 31.2494C2.39346 30.6169 1.40066 29.6241 0.768156 28.4065C0.0175781 26.9616 0.0175781 25.0633 0.0175781 21.2667V10.7333Z" fill="url(#paint0_radial_743_17350)"/>
<path d="M0.0175781 10.7333C0.0175781 6.93673 0.0175781 5.03843 0.768156 3.5935C1.40066 2.37588 2.39346 1.38308 3.61108 0.750577C5.05601 0 6.95431 0 10.7509 0H21.2843C25.0809 0 26.9792 0 28.4241 0.750577C29.6417 1.38308 30.6345 2.37588 31.267 3.5935C32.0176 5.03843 32.0176 6.93673 32.0176 10.7333V21.2667C32.0176 25.0633 32.0176 26.9616 31.267 28.4065C30.6345 29.6241 29.6417 30.6169 28.4241 31.2494C26.9792 32 25.0809 32 21.2843 32H10.7509C6.95431 32 5.05601 32 3.61108 31.2494C2.39346 30.6169 1.40066 29.6241 0.768156 28.4065C0.0175781 26.9616 0.0175781 25.0633 0.0175781 21.2667V10.7333Z" fill="url(#paint1_radial_743_17350)"/>
<path d="M16.0003 4.36377C12.8402 4.36377 12.4436 4.37759 11.2024 4.43407C9.96359 4.4908 9.11804 4.68692 8.37818 4.97468C7.61287 5.27189 6.96368 5.66947 6.31691 6.3165C5.66966 6.96328 5.2721 7.6125 4.97392 8.37759C4.68545 9.11771 4.48909 9.96353 4.43333 11.2018C4.37782 12.443 4.36328 12.8399 4.36328 16.0001C4.36328 19.1604 4.37734 19.5558 4.43358 20.797C4.49054 22.0358 4.68666 22.8813 4.97417 23.6212C5.27161 24.3866 5.66918 25.0358 6.31619 25.6826C6.96271 26.3298 7.6119 26.7284 8.37673 27.0256C9.11707 27.3133 9.96286 27.5095 11.2014 27.5662C12.4426 27.6227 12.8389 27.6365 15.9989 27.6365C19.1592 27.6365 19.5546 27.6227 20.7957 27.5662C22.0345 27.5095 22.8811 27.3133 23.6213 27.0256C24.3864 26.7284 25.0347 26.3298 25.6812 25.6826C26.3285 25.0358 26.726 24.3866 27.0242 23.6215C27.3103 22.8813 27.5065 22.0355 27.5648 20.7972C27.6206 19.556 27.6351 19.1604 27.6351 16.0001C27.6351 12.8399 27.6206 12.4433 27.5648 11.2021C27.5065 9.96328 27.3103 9.11771 27.0242 8.37783C26.726 7.6125 26.3285 6.96328 25.6812 6.3165C25.034 5.66922 24.3867 5.27165 23.6207 4.97468C22.8789 4.68692 22.0328 4.4908 20.7941 4.43407C19.5529 4.37759 19.1578 4.36377 15.9967 4.36377H16.0003ZM14.9565 6.46074C15.2663 6.46025 15.612 6.46074 16.0003 6.46074C19.1071 6.46074 19.4754 6.47189 20.7022 6.52765C21.8367 6.57953 22.4525 6.7691 22.8626 6.92838C23.4057 7.13928 23.7928 7.39141 24.1998 7.79868C24.6071 8.20595 24.8592 8.59383 25.0706 9.13686C25.2298 9.54656 25.4197 10.1623 25.4713 11.2969C25.527 12.5235 25.5392 12.892 25.5392 15.9975C25.5392 19.1029 25.527 19.4714 25.4713 20.6981C25.4194 21.8326 25.2298 22.4484 25.0706 22.8581C24.8597 23.4011 24.6071 23.7878 24.1998 24.1948C23.7926 24.6021 23.4059 24.8542 22.8626 25.0651C22.453 25.2251 21.8367 25.4142 20.7022 25.4661C19.4756 25.5218 19.1071 25.534 16.0003 25.534C12.8932 25.534 12.525 25.5218 11.2984 25.4661C10.1639 25.4137 9.54809 25.2241 9.13768 25.0649C8.59466 24.854 8.20679 24.6018 7.79953 24.1946C7.39227 23.7873 7.14016 23.4004 6.92877 22.8571C6.76951 22.4474 6.57969 21.8316 6.52806 20.6971C6.4723 19.4704 6.46115 19.102 6.46115 15.9946C6.46115 12.8872 6.4723 12.5206 6.52806 11.294C6.57994 10.1594 6.76951 9.54365 6.92877 9.13347C7.13968 8.59044 7.39227 8.20256 7.79953 7.79528C8.20679 7.38801 8.59466 7.13589 9.13768 6.9245C9.54785 6.7645 10.1639 6.57541 11.2984 6.52328C12.3718 6.4748 12.7878 6.46025 14.9565 6.45783V6.46074ZM22.2115 8.39286C21.4406 8.39286 20.8152 9.01759 20.8152 9.78874C20.8152 10.5596 21.4406 11.1851 22.2115 11.1851C22.9824 11.1851 23.6077 10.5596 23.6077 9.78874C23.6077 9.01783 22.9824 8.39238 22.2115 8.39238V8.39286ZM16.0003 10.0244C12.7003 10.0244 10.0247 12.7 10.0247 16.0001C10.0247 19.3003 12.7003 21.9747 16.0003 21.9747C19.3003 21.9747 21.9748 19.3003 21.9748 16.0001C21.9748 12.7 19.3001 10.0244 16.0001 10.0244H16.0003ZM16.0003 12.1213C18.1423 12.1213 19.879 13.8578 19.879 16.0001C19.879 18.1422 18.1423 19.8789 16.0003 19.8789C13.8581 19.8789 12.1216 18.1422 12.1216 16.0001C12.1216 13.8578 13.8581 12.1213 16.0003 12.1213Z" fill="white"/>
</g>
<defs>
<radialGradient id="paint0_radial_743_17350" cx="0" cy="0" r="1" gradientUnits="userSpaceOnUse" gradientTransform="translate(8.51762 34.4647) rotate(-90) scale(31.7144 29.4969)">
<stop stop-color="#FFDD55"/>
<stop offset="0.1" stop-color="#FFDD55"/>
<stop offset="0.5" stop-color="#FF543E"/>
<stop offset="1" stop-color="#C837AB"/>
</radialGradient>
<radialGradient id="paint1_radial_743_17350" cx="0" cy="0" r="1" gradientUnits="userSpaceOnUse" gradientTransform="translate(-5.34259 2.30523) rotate(78.6806) scale(14.1765 58.4359)">
<stop stop-color="#3771C8"/>
<stop offset="0.128" stop-color="#3771C8"/>
<stop offset="1" stop-color="#6600FF" stop-opacity="0"/>
</radialGradient>
<clipPath id="clip0_743_17350">
<rect width="32" height="32" fill="white"/>
</clipPath>
</defs>
</svg>
