<svg width="32" height="32" viewBox="0 0 32 32" fill="none" xmlns="http://www.w3.org/2000/svg">
<path d="M15.9993 2.6665C13.524 2.6665 11.15 3.64983 9.39969 5.40017C7.64935 7.15051 6.66602 9.52448 6.66602 11.9998C6.66602 18.9998 15.9993 29.3332 15.9993 29.3332C15.9993 29.3332 25.3327 18.9998 25.3327 11.9998C25.3327 9.52448 24.3494 7.15051 22.599 5.40017C20.8487 3.64983 18.4747 2.6665 15.9993 2.6665ZM15.9993 15.3332C15.3401 15.3332 14.6956 15.1377 14.1474 14.7714C13.5993 14.4051 13.172 13.8845 12.9198 13.2754C12.6675 12.6664 12.6014 11.9961 12.7301 11.3495C12.8587 10.7029 13.1762 10.109 13.6423 9.64281C14.1085 9.17664 14.7024 8.85917 15.349 8.73055C15.9957 8.60194 16.6659 8.66795 17.275 8.92024C17.884 9.17253 18.4046 9.59977 18.7709 10.1479C19.1372 10.6961 19.3327 11.3406 19.3327 11.9998C19.3327 12.4376 19.2465 12.871 19.0789 13.2754C18.9114 13.6799 18.6659 14.0473 18.3564 14.3569C18.0468 14.6664 17.6794 14.9119 17.275 15.0794C16.8705 15.247 16.4371 15.3332 15.9993 15.3332Z" fill="#D13406"/>
</svg>
