<svg width="152" height="48" viewBox="0 0 152 48" fill="none" xmlns="http://www.w3.org/2000/svg">
<path fill-rule="evenodd" clip-rule="evenodd" d="M142.253 29.6698H148.232V11.0575H142.253V29.6698ZM77.9808 17.5021C76.1406 17.4058 65.0995 17.5021 61.1889 15.5479C62.2089 12.6648 64.0127 10.1231 66.3976 8.20814C68.7826 6.29322 71.6542 5.0809 74.6902 4.70745C74.4903 4.35719 74.3859 3.96059 74.3874 3.55733C74.389 3.15406 74.4964 2.75839 74.6989 2.40967C74.9015 2.06094 75.1921 1.7715 75.5417 1.57032C75.8912 1.36913 76.2875 1.26318 76.6909 1.26318C77.0942 1.26318 77.4905 1.36913 77.84 1.57032C78.1896 1.7715 78.4802 2.06094 78.6828 2.40967C78.8853 2.75839 78.9928 3.15406 78.9943 3.55733C78.9958 3.96059 78.8914 4.35719 78.6916 4.70745C82.0709 5.12299 85.238 6.57682 87.7558 8.86836C90.2737 11.1599 92.0181 14.1762 92.7485 17.5011H93.2939C93.733 17.5021 94.1539 17.6771 94.4644 17.9876C94.775 18.298 94.9499 18.7187 94.9511 19.1578C94.9501 19.5969 94.7751 20.0178 94.4646 20.3284C94.154 20.6389 93.7331 20.8138 93.2939 20.8149H60.0884C59.6491 20.8138 59.2282 20.6389 58.9176 20.3284C58.6071 20.0178 58.4321 19.5969 58.4311 19.1578C58.4323 18.7187 58.6072 18.298 58.9178 17.9876C59.2283 17.6771 59.6492 17.5021 60.0884 17.5011L77.9808 17.5021ZM90.8272 17.5021C89.5766 11.8069 85.6987 8.21573 81.4742 6.80342C87.0485 9.51058 88.3602 14.2367 88.5651 17.5021H90.8272ZM3.76953 11.0575V29.6696H12.953C23.2597 29.6696 25.1108 24.6417 25.1108 20.5367V19.7867C25.1108 15.7838 22.887 11.0575 12.9277 11.0575H3.76953ZM9.74859 25.1917V15.5084H12.4029C18.2799 15.5084 18.8832 18.2866 18.8832 20.2124V20.3635C18.8832 22.3649 18.3054 25.1917 12.4029 25.1917H9.74859ZM28.5642 11.0575V29.6696H34.3167V17.7852L39.8739 29.6696H44.0289L49.6083 17.7852V29.6696H55.4629V11.0575H47.7582L42.1509 22.6403L36.6738 11.0575H28.5642ZM96.3124 29.6696H116.18V24.9432H104.493L116.078 14.9583V11.0575H96.3878V15.7349H107.423L96.3124 25.7415V29.6696ZM118.897 29.6696H138.764V24.9432H127.077L138.662 14.9583V11.0575H118.972V15.7349H130.007L118.897 25.7415V29.6696Z" fill="#D13406"/>
<path fill-rule="evenodd" clip-rule="evenodd" d="M76.6898 46.7368C69.4538 39.0057 61.2842 32.0349 60.3438 22.7896H62.6169C63.3461 29.1205 67.1458 34.1178 70.8954 37.7116C66.2003 32.6564 64.9278 27.4287 64.727 22.7896H69.3226C69.6676 24.4888 70.5895 26.0165 71.9323 27.1138C73.275 28.2112 74.956 28.8106 76.6902 28.8106C78.4245 28.8106 80.1054 28.2112 81.4482 27.1138C82.7909 26.0165 83.7129 24.4888 84.0578 22.7896H93.0369C92.095 32.0357 83.9257 39.0062 76.6898 46.7368Z" fill="#FFA505"/>
</svg>
