<svg width="154" height="48" viewBox="0 0 154 48" fill="none" xmlns="http://www.w3.org/2000/svg">
<path fill-rule="evenodd" clip-rule="evenodd" d="M147.078 29.9848H153.429V10.3385H147.078V29.9848ZM78.817 17.1411C76.8626 17.0395 65.1363 17.1411 60.983 15.0783C62.0663 12.035 63.982 9.35209 66.515 7.33079C69.0479 5.30949 72.0978 4.02981 75.3222 3.63562C75.1099 3.2659 74.999 2.84726 75.0006 2.42159C75.0023 1.99593 75.1164 1.57827 75.3315 1.21018C75.5466 0.84208 75.8553 0.536559 76.2265 0.324194C76.5978 0.11183 77.0187 0 77.447 0C77.8754 0 78.2963 0.11183 78.6676 0.324194C79.0388 0.536559 79.3475 0.84208 79.5626 1.21018C79.7777 1.57827 79.8918 1.99593 79.8934 2.42159C79.8951 2.84726 79.7842 3.2659 79.5719 3.63562C83.161 4.07424 86.5246 5.60884 89.1987 8.02769C91.8728 10.4465 93.7255 13.6304 94.5013 17.14H95.0805C95.5469 17.1411 95.9939 17.3258 96.3237 17.6535C96.6535 17.9812 96.8393 18.4253 96.8405 18.8888C96.8395 19.3523 96.6537 19.7966 96.3238 20.1244C95.994 20.4522 95.547 20.6368 95.0805 20.6379H59.8141C59.3476 20.6368 58.9006 20.4522 58.5707 20.1244C58.2409 19.7966 58.0551 19.3523 58.0541 18.8888C58.0553 18.4253 58.2411 17.9812 58.5709 17.6535C58.9007 17.3258 59.3477 17.1411 59.8141 17.14L78.817 17.1411ZM92.4607 17.1411C91.1325 11.1295 87.014 7.3388 82.5272 5.84803C88.4475 8.70558 89.8406 13.6943 90.0582 17.1411H92.4607ZM0 10.3385V29.9846H9.75345C20.6998 29.9846 22.6657 24.6773 22.6657 20.3442V19.5527C22.6657 15.3273 20.304 10.3385 9.7266 10.3385H0ZM6.35014 25.2579V15.0366H9.16915C15.4109 15.0366 16.0517 17.9692 16.0517 20.0019V20.1615C16.0517 22.274 15.438 25.2579 9.16915 25.2579H6.35014ZM26.3335 10.3385V29.9846H32.443V17.4399L38.3451 29.9846H42.758L48.6837 17.4399V29.9846H54.9016V10.3385H46.7187L40.7634 22.5647L34.9464 10.3385H26.3335ZM98.2864 29.9846H119.387V24.9956H106.975L119.278 14.456V10.3385H98.3664V15.2757H110.086L98.2864 25.8383V29.9846ZM122.272 29.9846H143.373V24.9956H130.96L143.264 14.456V10.3385H122.352V15.2757H134.072L122.272 25.8383V29.9846Z" fill="white"/>
<path fill-rule="evenodd" clip-rule="evenodd" d="M77.4484 47.9998C69.7634 39.8393 61.0867 32.4812 60.0879 22.7222H62.5021C63.2766 29.4049 67.3121 34.6798 71.2944 38.4732C66.3079 33.1372 64.9565 27.6191 64.7432 22.7222H69.624C69.9904 24.5158 70.9696 26.1284 72.3956 27.2867C73.8217 28.445 75.607 29.0778 77.4489 29.0778C79.2908 29.0778 81.076 28.445 82.5021 27.2867C83.9282 26.1284 84.9074 24.5158 85.2738 22.7222H94.8101C93.8097 32.482 85.1334 39.8398 77.4484 47.9998Z" fill="#FFA505"/>
</svg>
