<svg width="16" height="18" viewBox="0 0 16 18" fill="none" xmlns="http://www.w3.org/2000/svg">
<path d="M3.27197 12.272V9.818H10.629V8.182H3.271V5.727L0 9L3.27197 12.272ZM4.28 1.636V3.545H5.90799V1.636H14.382V16.363H5.90799V14.454H4.28V16.363C4.28132 16.7966 4.45406 17.212 4.76056 17.5187C5.06705 17.8254 5.4824 17.9984 5.91599 18H14.365C14.7986 17.9984 15.2139 17.8254 15.5204 17.5187C15.8269 17.212 15.9997 16.7966 16.001 16.363V1.636C15.9999 1.20243 15.8272 0.786921 15.5207 0.48034C15.2141 0.173759 14.7986 0.0010562 14.365 0H5.91599C5.48242 0.0010562 5.0669 0.173759 4.76031 0.48034C4.45373 0.786921 4.28105 1.20243 4.28 1.636Z" fill="#D13406"/>
</svg>
