<svg width="18" height="18" viewBox="0 0 18 18" fill="none" xmlns="http://www.w3.org/2000/svg">
<path d="M9 9C9.89002 9 10.76 8.73608 11.5001 8.24162C12.2401 7.74715 12.8169 7.04434 13.1575 6.22208C13.4981 5.39981 13.5872 4.49501 13.4135 3.6221C13.2399 2.74918 12.8113 1.94736 12.182 1.31802C11.5526 0.688685 10.7508 0.260102 9.87791 0.0864683C9.00499 -0.0871652 8.10019 0.00194976 7.27792 0.342544C6.45566 0.683138 5.75285 1.25991 5.25839 1.99994C4.76392 2.73996 4.5 3.60999 4.5 4.5C4.5 5.69348 4.97411 6.83807 5.81802 7.68198C6.66193 8.5259 7.80653 9 9 9ZM9 11.25C6 11.25 0 12.757 0 15.75V18H18V15.75C18 12.757 12 11.25 9 11.25Z" fill="#D13406"/>
</svg>
