<svg width="16" height="18" viewBox="0 0 16 18" fill="none" xmlns="http://www.w3.org/2000/svg">
<path d="M14.222 1.79983H10.507C10.3302 1.27517 9.99321 0.819219 9.54354 0.496233C9.09386 0.173247 8.55416 -0.000488281 8.00051 -0.000488281C7.44686 -0.000488281 6.90716 0.173247 6.45749 0.496233C6.00781 0.819219 5.67082 1.27517 5.49401 1.79983H1.77801C1.30395 1.80406 0.850832 1.99576 0.517675 2.33304C0.184517 2.67032 -0.0015941 3.12576 1.02875e-05 3.59983V16.1998C-0.0015941 16.6739 0.184517 17.1293 0.517675 17.4666C0.850832 17.8039 1.30395 17.9956 1.77801 17.9998H14.222C14.6961 17.9956 15.1492 17.8039 15.4823 17.4666C15.8155 17.1293 16.0016 16.6739 16 16.1998V3.59983C16.0016 3.12576 15.8155 2.67032 15.4823 2.33304C15.1492 1.99576 14.6961 1.80406 14.222 1.79983ZM8.00001 1.79983C8.17847 1.79765 8.35354 1.84858 8.50299 1.94613C8.65243 2.04369 8.76949 2.18348 8.8393 2.34773C8.90911 2.51198 8.92851 2.69327 8.89504 2.86857C8.86156 3.04388 8.77672 3.20527 8.65131 3.33224C8.52589 3.45921 8.36555 3.54602 8.19068 3.58165C8.0158 3.61728 7.83428 3.60011 7.66918 3.53232C7.50409 3.46454 7.36287 3.3492 7.26348 3.20097C7.1641 3.05274 7.11102 2.8783 7.11101 2.69983C7.11099 2.46303 7.2043 2.23576 7.37071 2.06729C7.53712 1.89882 7.76323 1.80273 8.00001 1.79983ZM9.77801 14.3998H3.55601V12.5998H9.77801V14.3998ZM12.445 10.7998H3.55601V8.99983H12.445V10.7998ZM12.445 7.19983H3.55601V5.39983H12.445V7.19983Z" fill="#D13406"/>
</svg>
