<svg width="32" height="32" viewBox="0 0 32 32" fill="none" xmlns="http://www.w3.org/2000/svg">
<path d="M0 10.7333C0 6.93673 0 5.03843 0.750577 3.5935C1.38308 2.37588 2.37588 1.38308 3.5935 0.750577C5.03843 0 6.93673 0 10.7333 0H21.2667C25.0633 0 26.9616 0 28.4065 0.750577C29.6241 1.38308 30.6169 2.37588 31.2494 3.5935C32 5.03843 32 6.93673 32 10.7333V21.2667C32 25.0633 32 26.9616 31.2494 28.4065C30.6169 29.6241 29.6241 30.6169 28.4065 31.2494C26.9616 32 25.0633 32 21.2667 32H10.7333C6.93673 32 5.03843 32 3.5935 31.2494C2.37588 30.6169 1.38308 29.6241 0.750577 28.4065C0 26.9616 0 25.0633 0 21.2667V10.7333Z" fill="url(#paint0_linear_743_17342)"/>
<path d="M12.3327 24.4998C11.6848 24.4998 11.7949 24.2552 11.5714 23.6383L9.66602 17.3675L24.3327 8.6665" fill="#C8DAEA"/>
<path d="M12.334 24.4997C12.834 24.4997 13.0549 24.2711 13.334 23.9997L16.0006 21.4067L12.6743 19.4009" fill="#A9C9DD"/>
<path d="M12.6725 19.4016L20.7325 25.3564C21.6523 25.8639 22.3161 25.6011 22.5452 24.5025L25.826 9.04199C26.1619 7.69529 25.3127 7.08449 24.4328 7.48396L5.16782 14.9125C3.8528 15.4399 3.86047 16.1736 4.92812 16.5005L9.87195 18.0435L21.3174 10.8227C21.8577 10.495 22.3536 10.6712 21.9466 11.0324" fill="url(#paint1_linear_743_17342)"/>
<defs>
<linearGradient id="paint0_linear_743_17342" x1="21.3344" y1="5.3344" x2="13.3344" y2="24" gradientUnits="userSpaceOnUse">
<stop stop-color="#37AEE2"/>
<stop offset="1" stop-color="#1E96C8"/>
</linearGradient>
<linearGradient id="paint1_linear_743_17342" x1="18.5" y1="15.333" x2="21.6298" y2="22.4552" gradientUnits="userSpaceOnUse">
<stop stop-color="#EFF7FC"/>
<stop offset="1" stop-color="white"/>
</linearGradient>
</defs>
</svg>
